<svg width="221" height="32" viewBox="0 0 221 32" fill="none" xmlns="http://www.w3.org/2000/svg">
<path d="M17.4913 3.55799L29.5217 0.094619C31.3562 -0.435295 33.0555 1.23015 32.5342 3.047L29.0197 14.8376C28.8845 15.2729 28.8845 15.7271 29.0197 16.1813L32.5342 27.9719C33.0749 29.7698 31.3755 31.4353 29.5217 30.9243L17.4913 27.4798C17.0472 27.3474 16.5837 27.3474 16.1203 27.4798L4.08986 30.9243C2.25537 31.4542 0.556048 29.7888 1.07743 27.9719L4.59193 16.1813C4.72711 15.746 4.72711 15.2918 4.59193 14.8376L1.09674 3.047C0.556048 1.24908 2.27468 -0.435295 4.10917 0.094619L16.1396 3.53906C16.5837 3.67154 17.0472 3.67154 17.5106 3.53906L17.4913 3.55799Z" fill="#4A74FC"/>
<path d="M70.84 14.6737C70.2337 12.3053 67.9979 10.7326 65.0042 10.7326C62.2947 10.7326 60.2863 12.021 59.4147 14.0863H55C55.9095 9.74736 59.9263 7 65.2126 7C71.181 7 75.52 10.8274 75.52 16.0189C75.52 21.2105 71.1431 24.981 65.2126 24.981C59.8884 24.981 55.8905 22.1579 55 17.8568H59.3768C60.2295 19.9221 62.2568 21.2484 65.0042 21.2484C67.9979 21.2484 70.2337 19.6947 70.84 17.3831H62.0295V14.6737H70.84Z" fill="black"/>
<path d="M78.855 7.53064H83.6108V13.8022H94.695V7.53064H99.4507V24.4885H94.695V18.179H83.6108V24.4885H78.855V7.53064Z" fill="black"/>
<path d="M103.808 7.53064H108.564V13.8022H119.648V7.53064H124.404V24.4885H119.648V18.179H108.564V24.4885H103.808V7.53064Z" fill="black"/>
<path d="M144.109 24.4885V14.1054L132.722 24.4885H128.781V7.53064H133.537V17.7433L144.905 7.53064H148.865V24.4885H144.109Z" fill="black"/>
<path d="M172.436 7.53064V24.4885H167.68V11.9075H157.884V24.4885H153.128V7.53064H172.417H172.436Z" fill="black"/>
<path d="M192.69 24.4884L192.217 22.2526C190.492 23.9768 188.01 25 185.13 25C179.503 25 175.259 21.1726 175.259 16.0379C175.259 10.9031 179.465 7.01892 185.13 7.01892C187.972 7.01892 190.492 8.00418 192.217 9.76629L192.69 7.5305H196.897V24.4884H192.69ZM186.154 20.7936C189.754 20.7936 192.16 18.861 192.16 16.0379C192.16 13.2147 189.716 11.1873 186.154 11.1873C182.591 11.1873 180.015 13.2147 180.015 16.0379C180.015 18.861 182.591 20.7936 186.154 20.7936Z" fill="black"/>
<path d="M205.991 24.4885H201.236V7.53064H205.991V13.878H208.095L213.93 7.53064H220.164L212.396 16.0001L220.846 24.4696H214.404L208.057 18.1601H205.991V24.4696V24.4885Z" fill="black"/>
</svg>
