<svg width="53" height="44" viewBox="0 0 53 44" fill="none" xmlns="http://www.w3.org/2000/svg">
<g clip-path="url(#clip0_4005_3501)">
<path d="M32.8988 3.22109L50.3763 20.6985C51.5478 21.8701 51.5478 23.7696 50.3763 24.9411L36.9412 38.3762C35.7697 39.5477 33.8702 39.5477 32.6986 38.3762L15.2212 20.8987C14.6904 20.368 14.3779 19.6576 14.3453 18.9077L13.7346 4.86199C13.6582 3.10409 15.1042 1.65809 16.8621 1.73449L30.9078 2.34519C31.6577 2.37779 32.3681 2.69029 32.8988 3.22109Z" fill="#4A74FC" stroke="black" stroke-width="2" stroke-linejoin="round"/>
<path d="M19.5 10C20.8807 10 22 8.88071 22 7.5C22 6.11929 20.8807 5 19.5 5C18.1193 5 17 6.11929 17 7.5C17 8.88071 18.1193 10 19.5 10Z" fill="black"/>
<path d="M26 15.2832V40C26 41.6569 24.6569 43 23 43H4C2.34315 43 1 41.6569 1 40V15.2832C1 14.5326 1.28136 13.8093 1.78854 13.256L11.2885 2.89241C12.4775 1.59531 14.5225 1.59531 15.7115 2.89241L25.2115 13.256C25.7186 13.8093 26 14.5326 26 15.2832Z" fill="white" stroke="black" stroke-width="2" stroke-linejoin="round"/>
<path d="M13.5 12C14.8807 12 16 10.8807 16 9.5C16 8.11929 14.8807 7 13.5 7C12.1193 7 11 8.11929 11 9.5C11 10.8807 12.1193 12 13.5 12Z" fill="black"/>
<path d="M15.4727 30.0298H6.37842V28.1133H15.4727C16.3597 28.1133 17.0881 27.9709 17.6577 27.686C18.2274 27.4012 18.6465 26.9984 18.915 26.4775C19.1917 25.9567 19.3301 25.3423 19.3301 24.6343C19.3301 24.0565 19.1999 23.5031 18.9395 22.9741C18.6872 22.4451 18.2762 22.0098 17.7065 21.668C17.145 21.3262 16.4004 21.1553 15.4727 21.1553H11.249V37H8.90527V19.2266H15.4727C16.8154 19.2266 17.9466 19.4585 18.8662 19.9224C19.7858 20.3781 20.4816 21.0129 20.9536 21.8267C21.4338 22.6323 21.6738 23.5601 21.6738 24.6099C21.6738 25.7492 21.4338 26.7257 20.9536 27.5396C20.4816 28.3452 19.7858 28.9637 18.8662 29.395C17.9466 29.8182 16.8154 30.0298 15.4727 30.0298ZM15.3262 31.7021V33.6309H6.37842V31.7021H15.3262Z" fill="black"/>
</g>
<defs>
<clipPath id="clip0_4005_3501">
<rect width="53" height="44" fill="white"/>
</clipPath>
</defs>
</svg>
