<svg width="44" height="44" viewBox="0 0 44 44" fill="none" xmlns="http://www.w3.org/2000/svg">
<path d="M22 12V43" stroke="black" stroke-width="2" stroke-linecap="round" stroke-linejoin="round"/>
<path d="M29 43H15" stroke="black" stroke-width="2" stroke-linecap="round" stroke-linejoin="round"/>
<path d="M36 15L8 1" stroke="black" stroke-width="2" stroke-linecap="round" stroke-linejoin="round"/>
<path d="M15 16H1C1.14141 18.6667 2.78182 24 8.21212 24C13.6424 24 15 18.6667 15 16Z" fill="#4A74FC" stroke="black" stroke-width="2" stroke-linecap="round" stroke-linejoin="round"/>
<path d="M43 30H29C29.1414 32.6667 30.7818 38 36.2121 38C41.6424 38 43 32.6667 43 30Z" fill="#4A74FC" stroke="black" stroke-width="2" stroke-linecap="round" stroke-linejoin="round"/>
<path d="M22 12C23.6569 12 25 10.6569 25 9C25 7.34315 23.6569 6 22 6C20.3431 6 19 7.34315 19 9C19 10.6569 20.3431 12 22 12Z" fill="white" stroke="black" stroke-width="2"/>
<path d="M15 16L8 1L1 16" stroke="black" stroke-width="2" stroke-linecap="round" stroke-linejoin="round"/>
<path d="M43 30L36 15L29 30" stroke="black" stroke-width="2" stroke-linecap="round" stroke-linejoin="round"/>
</svg>
