<svg width="45" height="45" viewBox="0 0 45 45" fill="none" xmlns="http://www.w3.org/2000/svg">
<circle cx="22.5" cy="22.5" r="12.5" fill="#4A74FC" stroke="black" stroke-width="2"/>
<path d="M17 22.5L21.32 27L29 19" stroke="black" stroke-width="2" stroke-linecap="round" stroke-linejoin="round"/>
<path d="M27.1047 5.33562L27.4513 5.63746L27.9061 5.57094L33.9475 4.68729L35.6535 10.5499L35.7819 10.9912L36.2004 11.1811L41.7606 13.704L40.0261 19.5582L39.8955 19.9989L40.145 20.385L43.4585 25.5134L38.8344 29.5005L38.4863 29.8007L38.4874 30.2603L38.5022 36.366L32.4566 37.2202L32.0014 37.2845L31.7539 37.6718L28.4654 42.8163L22.9176 40.2664L22.5 40.0744L22.0824 40.2664L16.5346 42.8163L13.2461 37.6718L12.9985 37.2845L12.5434 37.2202L6.49775 36.366L6.51262 30.2603L6.51374 29.8007L6.16564 29.5005L1.54151 25.5134L4.85502 20.385L5.10446 19.9989L4.97389 19.5582L3.23944 13.704L8.79958 11.1811L9.21813 10.9912L9.34655 10.5499L11.0525 4.68729L17.0939 5.57094L17.5487 5.63746L17.8953 5.33562L22.5 1.32599L27.1047 5.33562Z" stroke="black" stroke-width="2"/>
</svg>
