<svg width="132" height="37" viewBox="0 0 132 37" fill="none" xmlns="http://www.w3.org/2000/svg">
<path fill-rule="evenodd" clip-rule="evenodd" d="M20.2568 28.0188H14.5087C5.54166 28.0188 12.0562 8.94307 19.6053 8.94307H28.6873C30.1435 8.94307 32.711 9.21178 33.9756 5.60386L35.9299 0.00012207H23.4757C16.7313 0.00012207 11.4813 2.37979 7.68762 6.3715C1.13479 13.2034 -1.0878 23.8736 0.483347 28.9784C1.97785 33.6993 6.03984 36.8082 12.401 36.885L17.3444 36.9233H23.4373L24.9319 32.4327C26.0432 29.247 23.5524 28.0188 20.2568 28.0188ZM90.2302 20.1121L92.1077 14.0095H72.0662C68.7324 14.0095 67.2378 14.9306 66.663 16.8497L64.7853 22.9524H84.827C88.1608 22.9524 89.6554 22.0312 90.2302 20.1121ZM61.7963 30.8591L59.9186 36.9617H79.9603C83.2559 36.9617 84.7887 36.0406 85.3635 34.1215L87.2412 28.0188H67.1996C63.904 28.0188 62.4094 28.94 61.7963 30.8591ZM94.9052 6.14121L96.7834 0.0385033H76.7413C73.4075 0.0385033 71.9129 0.959664 71.3382 2.87875L69.4605 8.98146H89.5021C92.7981 8.98146 94.292 8.0603 94.9052 6.14121ZM64.6321 7.36942C63.789 1.68892 60.7616 0.0385033 53.4041 0.0385033H39.9919L32.1745 22.9524H37.1178C40.0685 22.9524 41.5631 22.9908 43.1342 18.7688L46.3914 8.94307H51.3731C55.6267 8.94307 54.6687 14.2782 52.5227 19.4597C50.6067 24.0271 47.2728 28.0572 43.2491 28.0572H34.9336C31.5997 28.0572 30.0669 28.9784 29.4537 30.8975L27.3844 37.0001H33.4774L39.4554 36.9617C44.7436 36.9233 49.0739 36.5395 54.1322 31.9721C59.4971 27.0976 65.705 14.5852 64.6321 7.36942ZM132 0.00012207H120.389L109.467 11.6298C108.202 12.9731 106.9 14.3165 105.635 15.8902H105.52L110.961 0.00012207H101.497L88.7357 36.9617H98.201L102.263 25.3321L106.478 21.7626L109.812 32.2792C110.846 35.5416 111.92 36.9617 114.219 36.9617H121.462L114.027 16.3124L132 0.00012207Z" fill="#00B33C"/>
</svg>
