<svg width="151" height="37" viewBox="0 0 151 37" fill="none" xmlns="http://www.w3.org/2000/svg">
<path fill-rule="evenodd" clip-rule="evenodd" d="M131.617 8.60238C133.69 8.27812 137.664 8.17188 139.357 9.09984C141.435 10.2388 140.986 13.1193 140.748 15.7642C140.235 21.478 140.841 27.4203 136.169 28.3392C134.195 28.7269 129.847 28.8302 128.148 27.8957C125.929 26.6762 126.393 23.7528 126.645 20.9468C127.277 13.929 126.506 9.40245 131.617 8.60238ZM150.859 14.1716C151.44 7.93776 150.307 3.92634 145.833 1.73609C141.843 -0.216999 134.69 -0.26886 129.88 0.352464C117.045 2.01151 117.588 10.5112 116.514 22.7232C115.965 28.9631 117.032 32.9458 121.519 35.1824C125.686 37.2598 132.443 37.2734 137.499 36.6158C150.282 34.9538 149.729 26.297 150.859 14.1716Z" fill="#026E54"/>
<path fill-rule="evenodd" clip-rule="evenodd" d="M112.096 22.9911L102.174 22.9936C101.91 25.3978 101.794 27.1666 100.123 27.9662C98.5604 28.7134 95.6175 28.7094 93.76 28.4571C88.9713 27.8071 90.1128 23.6461 90.5825 18.5497C90.9681 14.3696 90.5668 9.54399 94.6898 8.65832C96.3847 8.29429 99.3605 8.324 100.947 8.80887C103.227 9.50522 103.188 10.8511 103.068 13.2699L113.036 13.3188C113.37 7.79179 113.024 3.86547 108.971 1.76938C105.054 -0.25622 99.4324 -0.151994 94.6386 0.220095C82.6807 1.14755 81.5806 7.22585 80.6078 18.5819C79.5138 31.3568 79.7854 36.6652 93.7038 36.915C104.195 37.1028 111.894 36.3712 112.097 22.9911H112.096Z" fill="#026E54"/>
<path fill-rule="evenodd" clip-rule="evenodd" d="M59.3306 8.2953C63.5433 8.22129 67.8086 8.27869 72.0269 8.28121C76.4001 8.28322 75.8225 8.75903 76.0292 6.08744C76.1741 4.21491 76.4103 2.30965 76.5136 0.3918L50.8167 0.389282C50.0708 0.786044 50.577 -0.210391 50.2588 1.3258C50.2218 1.50505 50.1945 2.1445 50.1788 2.35849C50.12 3.16107 50.0485 3.96215 49.9715 4.7602C49.8231 6.30193 49.7055 7.75353 49.5672 9.28066C49.2936 12.3007 49.0052 15.295 48.7438 18.3377C48.232 24.2826 47.4264 30.5019 47.1274 36.4548L73.6331 36.4256L74.3004 28.5679L57.506 28.5513L58.1151 21.5647L73.6159 21.5163L74.1864 14.8605L58.7434 14.8399L59.3312 8.2953H59.3306Z" fill="#026E54"/>
<path fill-rule="evenodd" clip-rule="evenodd" d="M16.2932 8.74649L26.0212 8.76311L23.5496 36.4281L33.2482 36.4443L35.7219 8.81799L45.4073 8.75908L46.2591 0.408461L17.0147 0.391846L16.2932 8.74649Z" fill="#026E54"/>
<path fill-rule="evenodd" clip-rule="evenodd" d="M12.8999 0.391357L3.24233 0.395385L0 36.4508C1.84892 36.4659 8.34727 36.6769 9.68088 36.3119L12.8994 0.391357H12.8999Z" fill="#026E54"/>
</svg>
