<svg width="249" height="37" viewBox="0 0 249 37" fill="none" xmlns="http://www.w3.org/2000/svg">
<path d="M4.28811 25.9571L21.2058 29.1401L22.5202 26.9171L7.48225 20.5501L4.28811 25.9571ZM12.1255 12.6901L25.2847 22.2441L26.5991 20.0201L15.3206 7.28211L12.1265 12.6901H12.1255ZM8.19455 19.3481L23.2325 25.7171L24.5724 23.4451L11.4132 13.8921L8.19455 19.3481ZM19.621 0.00012207L16.0697 6.02011L27.3492 18.7601L29.0207 15.9361L19.621 0.00012207ZM0 33.2271H18.7975L20.468 30.4031L3.55131 27.2201L0 33.2271ZM29.83 25.7891L34.2283 33.2271H39.2287L29.83 17.3051L20.4313 33.2271H25.4317L29.83 25.7891Z" fill="#FCAF17"/>
<path d="M69.8322 33.2031H76.996L78.6421 30.3551H69.8332L69.8322 33.2031ZM69.8322 25.2951V28.1431H79.9452L81.628 25.2951H69.8322ZM221.665 28.6721V20.2601H218.494V33.2031H221.149L228.778 24.7311V33.2031H231.947V20.2601H229.147L221.665 28.6721ZM88.4714 20.2601L80.879 33.2031H84.614L89.6144 24.6581L94.6515 33.2031H98.5835L90.991 20.2601H88.4714ZM65.6573 30.3541L58.0649 17.4001H55.4728L47.8793 30.3541H45.9751V37.0001H48.9968V33.2021H64.5389V37.0001H67.5616V30.3541H65.6573ZM51.6633 30.3541L56.6637 21.7981L61.7009 30.3541H51.6633ZM169.276 20.2601H154.521V23.1081H167.58L169.276 20.2601ZM84.5762 20.2601H69.8332V23.1081H82.8934L84.5762 20.2601ZM246.199 20.2601L238.716 28.6721V20.2601H235.547V33.2031H238.212L245.83 24.7311V33.2031H249V20.2601H246.199ZM211.724 25.2951H204.783V20.2601H201.612V33.2031H204.783V28.1431H211.724V33.2031H214.894V20.2601H211.724V25.2951ZM173.159 20.2601L165.567 33.2031H169.314L174.314 24.6581L179.351 33.2031H183.271L175.678 20.2601H173.159ZM141.829 24.9001H137.013V20.2491H133.844V33.2031H141.804C143.955 33.2031 146.19 32.0381 146.19 28.9851C146.178 24.9721 143.303 24.9001 141.829 24.9001ZM141.645 30.4641H137.001V27.5801H141.645C142.185 27.5801 143.009 27.7241 143.009 29.0221C143.009 30.2231 142.333 30.4641 141.645 30.4641ZM150.934 20.2601H147.801V33.2151H150.934V20.2601ZM106.57 19.9471C101.274 19.9471 98.7682 23.1201 98.7682 26.6651C98.7682 30.3661 101.212 33.3821 106.57 33.3821C108.904 33.3821 114.309 32.3251 114.309 26.6651C114.309 22.9641 111.89 19.9471 106.57 19.9471ZM106.533 30.5341C103.474 30.5341 102.184 28.8161 102.184 26.7011C102.184 24.3811 103.657 22.8311 106.533 22.8311C109.776 22.8311 110.881 24.3811 110.881 26.7011C110.881 29.4771 108.757 30.5341 106.533 30.5341ZM154.521 33.2031H161.684L163.342 30.3551H154.521V33.2031ZM154.521 25.2951V28.1431H164.632L166.327 25.2951H154.521ZM187.731 28.6001V20.2601H184.561V33.2031H187.227L194.857 24.8031V33.2031H198.026V20.2601H195.361L187.731 28.6001ZM128.143 25.5721C128.978 25.2231 129.691 24.6591 129.691 23.2521C129.691 20.5721 127.393 20.2601 125.771 20.2601H117.208V33.2151H125.919C129.912 33.2151 130.735 31.0641 130.735 29.0931C130.747 26.8701 129.457 25.9561 128.143 25.5721ZM120.341 23.0001H125.415C126.177 23.0001 126.496 23.3851 126.496 24.1301C126.496 24.8991 125.993 25.2951 125.415 25.2951H120.341V23.0001ZM125.919 30.4631H120.341V27.6871H125.919C126.815 27.6871 127.467 27.9031 127.467 29.0571C127.467 29.9701 127.074 30.4631 125.919 30.4631Z" fill="black"/>
</svg>
