<svg width="110" height="110" viewBox="0 0 110 110" fill="none" xmlns="http://www.w3.org/2000/svg">
<circle cx="55" cy="55" r="55" fill="#4A74FC"/>
<ellipse cx="87.5" cy="41.5" rx="9.5" ry="12.5" fill="white"/>
<ellipse cx="28.5" cy="41.5" rx="9.5" ry="12.5" fill="white"/>
<rect x="27" y="29" width="61" height="25" fill="white"/>
<path d="M19 44C19 41.2386 21.2386 39 24 39H71C73.7614 39 76 41.2386 76 44V79.4032C76 82.7155 72.8377 85.1123 69.6487 84.2172L22.6487 71.0242C20.4911 70.4186 19 68.4513 19 66.2103V44Z" fill="white"/>
<path d="M22 68V77C22 79.7614 24.2386 82 27 82H72" stroke="white" stroke-width="5" stroke-linecap="round"/>
<ellipse cx="87.5" cy="41.5" rx="4.5" ry="6.5" fill="#4A74FC"/>
</svg>
