<svg width="110" height="110" viewBox="0 0 110 110" fill="none" xmlns="http://www.w3.org/2000/svg">
<circle cx="55" cy="55" r="55" fill="#4A74FC"/>
<ellipse cx="87.5" cy="41.5" rx="9.5" ry="12.5" fill="white"/>
<ellipse cx="28.5" cy="41.5" rx="9.5" ry="12.5" fill="white"/>
<rect x="19" y="39" width="57" height="47" rx="5" fill="white"/>
<rect x="27" y="29" width="61" height="25" fill="white"/>
<ellipse cx="87.5" cy="41.5" rx="4.5" ry="6.5" fill="#4A74FC"/>
<circle cx="28.5" cy="47.5" r="2.5" fill="#4A74FC"/>
<circle cx="28.5" cy="47.5" r="2.5" fill="#4A74FC"/>
<circle cx="28.5" cy="61.5" r="2.5" fill="#4A74FC"/>
<circle cx="28.5" cy="61.5" r="2.5" fill="#4A74FC"/>
<circle cx="28.5" cy="75.5" r="2.5" fill="#4A74FC"/>
<circle cx="28.5" cy="75.5" r="2.5" fill="#4A74FC"/>
<circle cx="47.5" cy="47.5" r="2.5" fill="#4A74FC"/>
<circle cx="47.5" cy="47.5" r="2.5" fill="#4A74FC"/>
<circle cx="47.5" cy="61.5" r="2.5" fill="#4A74FC"/>
<circle cx="47.5" cy="61.5" r="2.5" fill="#4A74FC"/>
<circle cx="47.5" cy="75.5" r="2.5" fill="#4A74FC"/>
<circle cx="47.5" cy="75.5" r="2.5" fill="#4A74FC"/>
<circle cx="66.5" cy="47.5" r="2.5" fill="#4A74FC"/>
<circle cx="66.5" cy="47.5" r="2.5" fill="#4A74FC"/>
<circle cx="66.5" cy="61.5" r="2.5" fill="#4A74FC"/>
<circle cx="66.5" cy="61.5" r="2.5" fill="#4A74FC"/>
<circle cx="66.5" cy="75.5" r="2.5" fill="#4A74FC"/>
<circle cx="66.5" cy="75.5" r="2.5" fill="#4A74FC"/>
</svg>
