<svg width="110" height="110" viewBox="0 0 110 110" fill="none" xmlns="http://www.w3.org/2000/svg">
<circle cx="55" cy="55" r="55" fill="#4A74FC"/>
<path d="M55.5361 17C71.3493 17.1387 83.8716 29.9675 83.999 45.764C84.1309 62.1723 71.005 75.3149 54.9056 74.9943C39.3048 74.6827 26.5813 61.6334 27.0106 45.1818C27.413 29.6764 39.7854 17.1228 55.5361 17ZM55.4802 67.7669C67.2982 67.776 76.6703 58.1175 76.8894 46.4622C77.1197 34.1679 67.4636 24.4548 55.9229 24.2547C43.7583 24.0432 34.3057 33.9223 34.1067 45.6026C33.8966 57.8696 43.6286 67.776 55.4824 67.7669H55.4802Z" fill="white"/>
<path d="M37.0022 45.9653C37.0566 35.7855 44.961 27.0224 55.5016 27C65.5432 26.9777 73.3626 35.0625 73.9574 44.7231C74.3059 50.3681 72.5151 55.2633 68.674 59.3012C65.0922 63.0683 60.6564 65 55.5451 65C45.4163 65 37.0741 56.6846 37 45.9631L37.0022 45.9653ZM55.5233 62.6274C55.8044 62.6274 56.0833 62.6341 56.3643 62.6274C57.7195 62.5871 59.0376 62.323 60.3296 61.9201C61.0115 61.7074 61.3296 61.2486 61.249 60.5457C61.1749 59.8944 61.0834 59.2386 60.9287 58.6006C60.5431 57.0047 59.8372 55.5834 58.6541 54.4374C57.1247 52.9578 54.9089 52.7139 53.1268 53.8487C52.0527 54.5314 51.338 55.5341 50.7803 56.669C50.2073 57.8351 49.9241 59.0819 49.7825 60.3756C49.6931 61.1859 49.9655 61.7007 50.7171 61.929C52.2858 62.408 53.885 62.6699 55.5255 62.6274H55.5233ZM55.5713 29.4913C55.1377 29.4913 54.702 29.4712 54.2706 29.4958C53.02 29.5652 51.7956 29.8002 50.6104 30.212C49.9589 30.4381 49.6713 30.9193 49.7759 31.6132C49.8914 32.372 49.9981 33.1398 50.2008 33.8762C50.6866 35.6377 51.5559 37.1575 53.0875 38.1827C54.5734 39.1787 56.1116 39.2504 57.6694 38.3506C58.9178 37.6298 59.7435 36.5286 60.3383 35.2192C60.8437 34.1067 61.1117 32.9294 61.2381 31.7117C61.3252 30.8679 61.0638 30.4135 60.2729 30.1583C58.7435 29.6659 57.1726 29.4443 55.5735 29.4913H55.5713ZM49.3184 51.5455C49.2552 51.1448 49.2312 50.7307 49.1223 50.3435C48.7432 48.9915 47.7911 48.2081 46.5449 47.7851C44.4882 47.0845 42.4685 47.2591 40.4946 48.1365C39.7604 48.4633 39.5142 48.958 39.6885 49.766C40.2179 52.2259 41.2507 54.4441 42.7801 56.4093C43.2703 57.0383 43.8041 57.6382 44.3814 58.1821C44.9348 58.7036 45.6102 58.6208 46.1113 58.0433C46.961 57.0652 47.7345 56.0221 48.3314 54.8582C48.8609 53.8241 49.2683 52.7497 49.3206 51.5477L49.3184 51.5455ZM43.9936 44.8036C44.9414 44.8081 45.8651 44.6693 46.7584 44.3291C48.3794 43.7091 49.2509 42.4243 49.277 40.6516C49.2901 39.745 49.0286 38.9124 48.6931 38.0976C48.0744 36.6002 47.1266 35.3244 46.0874 34.1179C45.9392 33.9456 45.717 33.8157 45.5057 33.7307C44.9588 33.5136 44.5449 33.7956 44.1745 34.1716C41.9173 36.4681 40.3901 39.1877 39.6994 42.3863C39.5164 43.2323 39.7365 43.6822 40.4946 44.0471C41.6036 44.5776 42.7757 44.8014 43.9915 44.8014L43.9936 44.8036ZM67.2339 47.1852C67.2317 47.1628 67.2295 47.1382 67.2252 47.1158C66.5193 47.2098 65.8046 47.2591 65.1096 47.4068C64.0791 47.6262 63.1532 48.0895 62.4865 48.9624C61.6172 50.1017 61.578 51.3977 61.9287 52.7251C62.4582 54.7194 63.615 56.3467 64.9201 57.8665C65.443 58.4753 66.1685 58.4663 66.7437 57.9023C69.0313 55.655 70.5433 52.9444 71.2884 49.7861C71.3516 49.5198 71.4017 49.2333 71.3756 48.9647C71.3211 48.4409 70.9573 48.1499 70.5172 47.9418C69.4736 47.4516 68.3755 47.2188 67.2339 47.1852ZM66.4953 44.7992C68.2448 44.8081 69.4235 44.5798 70.539 44.0426C71.2863 43.6845 71.5107 43.2346 71.3298 42.4064C70.6283 39.1966 69.1141 36.448 66.8221 34.156C66.1314 33.4643 65.4234 33.4889 64.8199 34.2544C64.2338 34.9953 63.6564 35.7496 63.1423 36.5442C62.4603 37.603 61.9374 38.7512 61.7828 40.0271C61.578 41.726 62.1945 43.3196 63.8373 44.1299C64.846 44.6291 65.9158 44.7902 66.4953 44.7992ZM60.1357 45.99C60.1662 43.4338 58.1356 41.3186 55.6671 41.238C53.0875 41.1529 50.8914 43.2726 50.874 45.9765C50.8587 48.5506 52.8762 50.6658 55.3817 50.7553C57.8742 50.8449 60.1879 48.7297 60.1357 45.99Z" fill="white"/>
<path d="M21 80V51.2985C21 46.9584 26.3025 44.5387 29.9896 46.8281C46.2198 56.9058 64.236 56.6889 79.937 46.942C83.6414 44.6424 89 47.0683 89 51.4284V80C89 82.7614 86.7614 85 84 85H26C23.2386 85 21 82.7614 21 80Z" fill="white"/>
</svg>
