<svg width="24" height="24" viewBox="0 0 24 24" fill="none" xmlns="http://www.w3.org/2000/svg">
<path d="M12.005 24.01C18.6352 24.01 24.01 18.6352 24.01 12.005C24.01 5.37482 18.6352 0 12.005 0C5.37482 0 0 5.37482 0 12.005C0 18.6352 5.37482 24.01 12.005 24.01Z" fill="#7B7C7C"/>
<path fill-rule="evenodd" clip-rule="evenodd" d="M5.4277 11.8751C8.92624 10.3557 11.2553 9.34615 12.4248 8.85636C15.7534 7.46694 16.4531 7.22704 16.9029 7.21704C17.0029 7.21704 17.2228 7.23703 17.3727 7.35698C17.4927 7.45694 17.5227 7.58689 17.5426 7.68685C17.5626 7.7868 17.5826 7.99672 17.5626 8.15665C17.3827 10.0559 16.603 14.6639 16.2032 16.7831C16.0333 17.6827 15.7034 17.9826 15.3835 18.0125C14.6838 18.0725 14.1541 17.5527 13.4843 17.1129C12.4248 16.4232 11.835 15.9934 10.8055 15.3137C9.61595 14.534 10.3856 14.1042 11.0653 13.4045C11.2453 13.2245 14.314 10.4257 14.374 10.1758C14.384 10.1458 14.384 10.0259 14.314 9.9659C14.244 9.90592 14.1441 9.92591 14.0641 9.9459C13.9541 9.9659 12.2748 11.0854 9.00621 13.2945C8.52641 13.6244 8.09659 13.7843 7.70675 13.7743C7.27693 13.7643 6.45727 13.5344 5.83753 13.3345C5.08784 13.0946 4.48809 12.9646 4.53807 12.5448C4.56806 12.3249 4.86793 12.105 5.4277 11.8751Z" fill="white"/>
</svg>
