<svg width="24" height="24" viewBox="0 0 24 24" fill="none" xmlns="http://www.w3.org/2000/svg">
<path d="M12.005 24.01C18.6352 24.01 24.01 18.6352 24.01 12.005C24.01 5.37482 18.6352 0 12.005 0C5.37482 0 0 5.37482 0 12.005C0 18.6352 5.37482 24.01 12.005 24.01Z" fill="url(#paint0_linear_493_1524)"/>
<path fill-rule="evenodd" clip-rule="evenodd" d="M5.4277 11.875C8.92624 10.3557 11.2553 9.34609 12.4248 8.8563C15.7534 7.46688 16.4531 7.22698 16.9029 7.21698C17.0029 7.21698 17.2228 7.23697 17.3727 7.35692C17.4927 7.45688 17.5227 7.58683 17.5426 7.68678C17.5626 7.78674 17.5826 7.99666 17.5626 8.15659C17.3827 10.0558 16.603 14.6639 16.2032 16.783C16.0333 17.6826 15.7034 17.9825 15.3835 18.0125C14.6838 18.0725 14.1541 17.5527 13.4843 17.1129C12.4248 16.4231 11.835 15.9933 10.8055 15.3136C9.61595 14.5339 10.3856 14.1041 11.0653 13.4044C11.2453 13.2245 14.314 10.4256 14.374 10.1757C14.384 10.1458 14.384 10.0258 14.314 9.96583C14.244 9.90586 14.1441 9.92585 14.0641 9.94584C13.9541 9.96584 12.2748 11.0854 9.00621 13.2944C8.52641 13.6243 8.09659 13.7842 7.70675 13.7742C7.27693 13.7643 6.45727 13.5343 5.83753 13.3344C5.08784 13.0945 4.48809 12.9646 4.53807 12.5448C4.56806 12.3249 4.86793 12.1049 5.4277 11.875Z" fill="white"/>
<defs>
<linearGradient id="paint0_linear_493_1524" x1="11.995" y1="0" x2="11.995" y2="23.8201" gradientUnits="userSpaceOnUse">
<stop stop-color="#2AABEE"/>
<stop offset="1" stop-color="#229ED9"/>
</linearGradient>
</defs>
</svg>
