<svg width="25" height="25" viewBox="0 0 25 25" fill="none" xmlns="http://www.w3.org/2000/svg">
<path d="M0.101393 12.0888C0.100635 14.2192 0.657288 16.2991 1.71574 18.1327L0 24.3972L6.41074 22.7162C8.17703 23.6787 10.1657 24.1868 12.1896 24.1875H12.1948C18.8597 24.1875 24.2847 18.764 24.2876 12.0983C24.2889 8.86797 23.0321 5.8309 20.7488 3.54559C18.4658 1.26059 15.4296 0.00151657 12.1943 0C5.52895 0 0.104282 5.42277 0.101393 12.0888ZM12.1948 24.1875C12.1945 24.1875 12.1947 24.1875 12.1948 24.1875V24.1875Z" fill="url(#paint0_linear_493_1527)"/>
<path fill-rule="evenodd" clip-rule="evenodd" d="M9.06566 6.8494C8.83115 6.32814 8.58441 6.3177 8.36136 6.30853C8.17882 6.30077 7.97005 6.30128 7.76153 6.30128C7.55275 6.30128 7.21365 6.37962 6.92691 6.69284C6.63991 7.00607 5.8313 7.76324 5.8313 9.30317C5.8313 10.8432 6.95305 12.3313 7.10933 12.5404C7.26588 12.749 9.27473 16.0103 12.4559 17.2648C15.1 18.3075 15.6381 18.1001 16.212 18.0478C16.7858 17.9957 18.0639 17.2909 18.3246 16.56C18.5855 15.8292 18.5855 15.2028 18.5073 15.0719C18.4291 14.9415 18.2203 14.8632 17.9073 14.7067C17.5942 14.5502 16.0554 13.7929 15.7686 13.6884C15.4816 13.5841 15.2729 13.532 15.0641 13.8454C14.8555 14.1583 14.256 14.8632 14.0733 15.0719C13.8908 15.2811 13.7081 15.3072 13.3951 15.1507C13.082 14.9936 12.0739 14.6634 10.878 13.5972C9.9475 12.7676 9.31936 11.743 9.13668 11.4297C8.95414 11.1167 9.11719 10.9471 9.27413 10.7911C9.41476 10.6508 9.58724 10.4256 9.7438 10.2429C9.89997 10.0602 9.95207 9.92971 10.0564 9.72093C10.1609 9.51201 10.1086 9.32922 10.0304 9.17265C9.95207 9.0161 9.34399 7.46834 9.06566 6.8494Z" fill="white"/>
<defs>
<linearGradient id="paint0_linear_493_1527" x1="12.1439" y1="24.3946" x2="12.1439" y2="-0.00256373" gradientUnits="userSpaceOnUse">
<stop stop-color="#20B038"/>
<stop offset="1" stop-color="#60D66A"/>
</linearGradient>
</defs>
</svg>
