<svg xmlns="http://www.w3.org/2000/svg" version="1.1" xmlns:xlink="http://www.w3.org/1999/xlink" xmlns:svgjs="http://svgjs.dev/svgjs" width="33" height="32"><svg width="33" height="32" viewBox="0 0 33 32" fill="none" xmlns="http://www.w3.org/2000/svg">
<path d="M17.4913 3.55799L29.5217 0.094619C31.3562 -0.435295 33.0555 1.23015 32.5342 3.047L29.0197 14.8376C28.8845 15.2729 28.8845 15.7271 29.0197 16.1813L32.5342 27.9719C33.0749 29.7698 31.3755 31.4353 29.5217 30.9243L17.4913 27.4798C17.0472 27.3474 16.5837 27.3474 16.1203 27.4798L4.08986 30.9243C2.25537 31.4542 0.556048 29.7888 1.07743 27.9719L4.59193 16.1813C4.72711 15.746 4.72711 15.2918 4.59193 14.8376L1.09674 3.047C0.556048 1.24908 2.27468 -0.435295 4.10917 0.094619L16.1396 3.53906C16.5837 3.67154 17.0472 3.67154 17.5106 3.53906L17.4913 3.55799Z" fill="#4A74FC"></path>
</svg><style>@media (prefers-color-scheme: light) { :root { filter: none; } }
@media (prefers-color-scheme: dark) { :root { filter: none; } }
</style></svg>